# xmcd CD database file
#
# Track frame offsets:
#	150
#	28490
#	46051
#	64233
#	81665
#	109533
#	128137
#	155351
#	172025
#	194034
#	219197
#	234512
#
# Disc length: 3816 seconds
#
# Revision: 0
# Processed by: cddbd v1.5.1PL0 Copyright (c) Steve Scherf et al.
# Submitted via: CDex 1.50
#
DISCID=aa0ee60c
DTITLE=François Tusques - Blue Phèdre
DYEAR=1996
DGENRE=Jazz
TTITLE0=Méditerranée
TTITLE1=L'abîme
TTITLE2=Didascalie
TTITLE3=Sortilège de l'ironie 
TTITLE4=Ironie du sortilège
TTITLE5=Blue Phèdre
TTITLE6=Implacable Vénus
TTITLE7=Alexandrins africains
TTITLE8=Irrémédiable destin
TTITLE9=Blue Bass
TTITLE10=Remords
TTITLE11=Le poulailler
EXTD=YEAR: 1996
EXTT0=
EXTT1=
EXTT2=
EXTT3=
EXTT4=
EXTT5=
EXTT6=
EXTT7=
EXTT8=
EXTT9=
EXTT10=
EXTT11=
PLAYORDER=
